HIERARCHY
ROOT newVegas:Hips
{
	OFFSET 0.000000 96.479958 0.000000
	CHANNELS 6 Xposition Yposition Zposition Xrotation Yrotation Zrotation
	JOINT newVegas:Pelvis
	{
		OFFSET 0.000000 0.000000 0.000000
		CHANNELS 3 Xrotation Yrotation Zrotation
		JOINT newVegas:LeftUpLeg
		{
			OFFSET 18.735201 -5.666702 -4.541200
			CHANNELS 3 Xrotation Yrotation Zrotation
			JOINT newVegas:LeftLeg
			{
				OFFSET -0.021200 -31.938179 0.493100
				CHANNELS 3 Xrotation Yrotation Zrotation
				JOINT newVegas:LeftFoot
				{
					OFFSET 0.021200 -31.938179 -4.336299
					CHANNELS 3 Xrotation Yrotation Zrotation
					JOINT newVegas:LeftToeBase
					{
						OFFSET 0.943001 -26.722000 15.023500
						CHANNELS 3 Xrotation Yrotation Zrotation
						End Site
						{
							OFFSET 0.000000 30.670183 0.000000
						}
					}
				}
				JOINT newVegas:Left_PantLeg
				{
					OFFSET 0.663870 -9.044666 -1.108900
					CHANNELS 3 Xrotation Yrotation Zrotation
					End Site
					{
						OFFSET 1.415995 20.635357 0.000000
					}
				}
			}
		}
		JOINT newVegas:RightUpLeg
		{
			OFFSET -18.735201 -5.666702 -4.541200
			CHANNELS 3 Xrotation Yrotation Zrotation
			JOINT newVegas:RightLeg
			{
				OFFSET 0.018946 -31.938133 0.493100
				CHANNELS 3 Xrotation Yrotation Zrotation
				JOINT newVegas:RightFoot
				{
					OFFSET -0.018946 -31.938126 -4.336299
					CHANNELS 3 Xrotation Yrotation Zrotation
					JOINT newVegas:RightToeBase
					{
						OFFSET -0.943001 -26.722004 15.023500
						CHANNELS 3 Xrotation Yrotation Zrotation
						End Site
						{
							OFFSET 0.000000 30.670187 0.000000
						}
					}
				}
				JOINT newVegas:Right_PantLeg
				{
					OFFSET -0.661674 -9.044716 -1.108900
					CHANNELS 3 Xrotation Yrotation Zrotation
					End Site
					{
						OFFSET -1.415958 20.635269 0.000000
					}
				}
			}
		}
	}
	JOINT newVegas:Spine
	{
		OFFSET 0.000000 10.199997 -0.299500
		CHANNELS 3 Xrotation Yrotation Zrotation
		JOINT newVegas:Spine1
		{
			OFFSET 0.000000 11.900002 -1.516600
			CHANNELS 3 Xrotation Yrotation Zrotation
			JOINT newVegas:Spine2
			{
				OFFSET 0.000000 13.600006 -2.842500
				CHANNELS 3 Xrotation Yrotation Zrotation
				JOINT newVegas:Neck
				{
					OFFSET 0.000000 9.624100 -2.890100
					CHANNELS 3 Xrotation Yrotation Zrotation
					JOINT newVegas:Head
					{
						OFFSET 0.000000 14.068802 -1.351900
						CHANNELS 3 Xrotation Yrotation Zrotation
						JOINT newVegas:Hair_Back
						{
							OFFSET 0.000000 3.231903 -17.524799
							CHANNELS 3 Xrotation Yrotation Zrotation
							End Site
							{
								OFFSET 0.000000 19.849884 0.000000
							}
						}
						JOINT newVegas:Hair_Front
						{
							OFFSET 0.000000 31.260406 4.573800
							CHANNELS 3 Xrotation Yrotation Zrotation
							JOINT newVegas:Hair_Front1
							{
								OFFSET 0.000000 2.284103 11.993300
								CHANNELS 3 Xrotation Yrotation Zrotation
								JOINT newVegas:Hair_Front2
								{
									OFFSET 0.000000 2.284103 11.993300
									CHANNELS 3 Xrotation Yrotation Zrotation
									End Site
									{
										OFFSET 0.000000 12.208862 0.000000
									}
								}
							}
						}
						JOINT newVegas:Jowel
						{
							OFFSET 0.000000 -7.458206 6.864100
							CHANNELS 3 Xrotation Yrotation Zrotation
							End Site
							{
								OFFSET 0.000000 19.849884 0.000000
							}
						}
					}
				}
				JOINT newVegas:LeftShoulder
				{
					OFFSET 15.263000 10.923401 -0.547700
					CHANNELS 3 Xrotation Yrotation Zrotation
					JOINT newVegas:LeftArm
					{
						OFFSET 25.438599 -2.830597 -13.032500
						CHANNELS 3 Xrotation Yrotation Zrotation
						JOINT newVegas:LeftForeArm
						{
							OFFSET 29.960503 0.000000 0.000000
							CHANNELS 3 Xrotation Yrotation Zrotation
							JOINT newVegas:LeftHand
							{
								OFFSET 27.849251 0.000000 0.000000
								CHANNELS 3 Xrotation Yrotation Zrotation
								JOINT newVegas:LeftHandThumb1
								{
									OFFSET 4.487587 -3.305161 6.305391
									CHANNELS 3 Xrotation Yrotation Zrotation
									JOINT newVegas:LeftHandThumb2
									{
										OFFSET 5.480453 -3.164139 3.164143
										CHANNELS 3 Xrotation Yrotation Zrotation
										JOINT newVegas:LeftHandThumb3
										{
											OFFSET 5.159721 -2.978973 2.978967
											CHANNELS 3 Xrotation Yrotation Zrotation
											End Site
											{
												OFFSET 2.494507 5.926697 1.738678
											}
										}
									}
								}
								JOINT newVegas:LeftHandIndex1
								{
									OFFSET 18.578728 -0.527832 5.208049
									CHANNELS 3 Xrotation Yrotation Zrotation
									JOINT newVegas:LeftHandIndex2
									{
										OFFSET 3.192009 0.000000 0.000000
										CHANNELS 3 Xrotation Yrotation Zrotation
										JOINT newVegas:LeftHandIndex3
										{
											OFFSET 3.835129 0.000000 0.000000
											CHANNELS 3 Xrotation Yrotation Zrotation
											End Site
											{
												OFFSET -0.034599 3.816971 0.371180
											}
										}
									}
								}
								JOINT newVegas:LeftHandMiddle1
								{
									OFFSET 18.476105 0.000000 0.000000
									CHANNELS 3 Xrotation Yrotation Zrotation
									JOINT newVegas:LeftHandMiddle2
									{
										OFFSET 3.324875 0.000000 0.000000
										CHANNELS 3 Xrotation Yrotation Zrotation
										JOINT newVegas:LeftHandMiddle3
										{
											OFFSET 4.596550 0.000000 0.000000
											CHANNELS 3 Xrotation Yrotation Zrotation
											End Site
											{
												OFFSET 0.057701 4.578827 0.399218
											}
										}
									}
								}
								JOINT newVegas:LeftHandRing1
								{
									OFFSET 17.732719 0.121887 -4.201567
									CHANNELS 3 Xrotation Yrotation Zrotation
									JOINT newVegas:LeftHandRing2
									{
										OFFSET 2.733170 0.000000 0.000000
										CHANNELS 3 Xrotation Yrotation Zrotation
										JOINT newVegas:LeftHandRing3
										{
											OFFSET 3.178268 0.000000 0.000000
											CHANNELS 3 Xrotation Yrotation Zrotation
											End Site
											{
												OFFSET 0.119102 3.170624 0.185394
											}
										}
									}
								}
								JOINT newVegas:LeftHandPinky1
								{
									OFFSET 15.989624 -0.606689 -7.535461
									CHANNELS 3 Xrotation Yrotation Zrotation
									JOINT newVegas:LeftHandPinky2
									{
										OFFSET 2.538986 0.000000 0.000000
										CHANNELS 3 Xrotation Yrotation Zrotation
										JOINT newVegas:LeftHandPinky3
										{
											OFFSET 2.593102 0.000000 0.000000
											CHANNELS 3 Xrotation Yrotation Zrotation
											End Site
											{
												OFFSET -0.150902 2.584198 0.152708
											}
										}
									}
								}
							}
							JOINT newVegas:Left_Sleeve
							{
								OFFSET 0.267448 -0.649796 0.577675
								CHANNELS 3 Xrotation Yrotation Zrotation
								End Site
								{
									OFFSET 0.000000 15.991241 0.000000
								}
							}
							JOINT newVegas:Left_CapeC
							{
								OFFSET 15.715958 -8.608795 -6.935905
								CHANNELS 3 Xrotation Yrotation Zrotation
								JOINT newVegas:Left_CapeC1
								{
									OFFSET 0.000000 -8.688499 0.000000
									CHANNELS 3 Xrotation Yrotation Zrotation
									End Site
									{
										OFFSET 0.000000 8.688499 0.000000
									}
								}
							}
						}
						JOINT newVegas:Left_CapeB
						{
							OFFSET 26.118385 -8.608795 -7.079235
							CHANNELS 3 Xrotation Yrotation Zrotation
							JOINT newVegas:Left_CapeB1
							{
								OFFSET 0.000000 -8.688499 0.000000
								CHANNELS 3 Xrotation Yrotation Zrotation
								End Site
								{
									OFFSET 0.000000 8.688499 0.000000
								}
							}
						}
						JOINT newVegas:Left_CapeA
						{
							OFFSET 5.115639 -8.608795 -10.395809
							CHANNELS 3 Xrotation Yrotation Zrotation
							JOINT newVegas:Left_CapeA1
							{
								OFFSET 0.000000 -8.688499 0.000000
								CHANNELS 3 Xrotation Yrotation Zrotation
								End Site
								{
									OFFSET 0.000000 8.688499 0.000000
								}
							}
						}
					}
				}
				JOINT newVegas:RightShoulder
				{
					OFFSET -15.263000 10.923401 -0.547700
					CHANNELS 3 Xrotation Yrotation Zrotation
					JOINT newVegas:RightArm
					{
						OFFSET -25.438599 -2.830597 -13.032500
						CHANNELS 3 Xrotation Yrotation Zrotation
						JOINT newVegas:RightForeArm
						{
							OFFSET -29.960503 0.000000 0.000000
							CHANNELS 3 Xrotation Yrotation Zrotation
							JOINT newVegas:RightHand
							{
								OFFSET -27.849251 0.000000 0.000000
								CHANNELS 3 Xrotation Yrotation Zrotation
								JOINT newVegas:RightHandThumb1
								{
									OFFSET -4.487587 -3.305161 6.305391
									CHANNELS 3 Xrotation Yrotation Zrotation
									JOINT newVegas:RightHandThumb2
									{
										OFFSET -5.480453 -3.164139 3.164143
										CHANNELS 3 Xrotation Yrotation Zrotation
										JOINT newVegas:RightHandThumb3
										{
											OFFSET -5.159721 -2.978973 2.978967
											CHANNELS 3 Xrotation Yrotation Zrotation
											End Site
											{
												OFFSET -2.494507 5.926697 1.738678
											}
										}
									}
								}
								JOINT newVegas:RightHandIndex1
								{
									OFFSET -18.578728 -0.527832 5.208049
									CHANNELS 3 Xrotation Yrotation Zrotation
									JOINT newVegas:RightHandIndex2
									{
										OFFSET -3.192009 0.000000 0.000000
										CHANNELS 3 Xrotation Yrotation Zrotation
										JOINT newVegas:RightHandIndex3
										{
											OFFSET -3.835129 0.000000 0.000000
											CHANNELS 3 Xrotation Yrotation Zrotation
											End Site
											{
												OFFSET 0.034599 3.816971 0.371180
											}
										}
									}
								}
								JOINT newVegas:RightHandMiddle1
								{
									OFFSET -18.476105 0.000000 0.000000
									CHANNELS 3 Xrotation Yrotation Zrotation
									JOINT newVegas:RightHandMiddle2
									{
										OFFSET -3.324875 0.000000 0.000000
										CHANNELS 3 Xrotation Yrotation Zrotation
										JOINT newVegas:RightHandMiddle3
										{
											OFFSET -4.596550 0.000000 0.000000
											CHANNELS 3 Xrotation Yrotation Zrotation
											End Site
											{
												OFFSET -0.057701 4.578827 0.399218
											}
										}
									}
								}
								JOINT newVegas:RightHandRing1
								{
									OFFSET -17.732719 0.121887 -4.201567
									CHANNELS 3 Xrotation Yrotation Zrotation
									JOINT newVegas:RightHandRing2
									{
										OFFSET -2.733170 0.000000 0.000000
										CHANNELS 3 Xrotation Yrotation Zrotation
										JOINT newVegas:RightHandRing3
										{
											OFFSET -3.178268 0.000000 0.000000
											CHANNELS 3 Xrotation Yrotation Zrotation
											End Site
											{
												OFFSET -0.119102 3.170624 0.185394
											}
										}
									}
								}
								JOINT newVegas:RightHandPinky1
								{
									OFFSET -15.989624 -0.606689 -7.535461
									CHANNELS 3 Xrotation Yrotation Zrotation
									JOINT newVegas:RightHandPinky2
									{
										OFFSET -2.538986 0.000000 0.000000
										CHANNELS 3 Xrotation Yrotation Zrotation
										JOINT newVegas:RightHandPinky3
										{
											OFFSET -2.593102 0.000000 0.000000
											CHANNELS 3 Xrotation Yrotation Zrotation
											End Site
											{
												OFFSET 0.150902 2.584198 0.152708
											}
										}
									}
								}
							}
							JOINT newVegas:Right_CapeC
							{
								OFFSET -15.715958 -8.608795 -6.935905
								CHANNELS 3 Xrotation Yrotation Zrotation
								JOINT newVegas:Right_CapeC1
								{
									OFFSET 0.000000 -8.688499 0.000000
									CHANNELS 3 Xrotation Yrotation Zrotation
									End Site
									{
										OFFSET 0.000000 8.688499 0.000000
									}
								}
							}
							JOINT newVegas:Right_Sleeve
							{
								OFFSET -0.267448 -0.649994 0.577675
								CHANNELS 3 Xrotation Yrotation Zrotation
								End Site
								{
									OFFSET 0.000000 15.991302 0.000000
								}
							}
						}
						JOINT newVegas:Right_CapeA
						{
							OFFSET -5.115540 -8.608795 -10.395824
							CHANNELS 3 Xrotation Yrotation Zrotation
							JOINT newVegas:Right_CapeA1
							{
								OFFSET 0.000000 -8.688499 0.000000
								CHANNELS 3 Xrotation Yrotation Zrotation
								End Site
								{
									OFFSET 0.000000 8.688499 0.000000
								}
							}
						}
						JOINT newVegas:Right_CapeB
						{
							OFFSET -26.118187 -8.608795 -7.079266
							CHANNELS 3 Xrotation Yrotation Zrotation
							JOINT newVegas:Right_CapeB1
							{
								OFFSET 0.000000 -8.688499 0.000000
								CHANNELS 3 Xrotation Yrotation Zrotation
								End Site
								{
									OFFSET 0.000000 8.688499 0.000000
								}
							}
						}
					}
				}
				JOINT newVegas:Left_Collar
				{
					OFFSET 18.625099 8.655502 8.828100
					CHANNELS 3 Xrotation Yrotation Zrotation
					JOINT newVegas:Left_Collar1
					{
						OFFSET 14.783401 10.540405 -1.259500
						CHANNELS 3 Xrotation Yrotation Zrotation
						End Site
						{
							OFFSET 0.000000 18.199875 0.000000
						}
					}
				}
				JOINT newVegas:Collar_Back
				{
					OFFSET 0.000000 15.630707 -20.132601
					CHANNELS 3 Xrotation Yrotation Zrotation
					End Site
					{
						OFFSET 0.000000 22.523010 0.000000
					}
				}
				JOINT newVegas:Left_Peck
				{
					OFFSET 17.239599 -5.132599 25.482599
					CHANNELS 3 Xrotation Yrotation Zrotation
					End Site
					{
						OFFSET 0.000000 22.523010 0.000000
					}
				}
				JOINT newVegas:Right_Peck
				{
					OFFSET -17.239599 -5.132202 25.482599
					CHANNELS 3 Xrotation Yrotation Zrotation
					End Site
					{
						OFFSET 0.000000 22.523010 0.000000
					}
				}
				JOINT newVegas:Right_Collar
				{
					OFFSET -18.625099 8.655792 8.828100
					CHANNELS 3 Xrotation Yrotation Zrotation
					JOINT newVegas:Right_Collar1
					{
						OFFSET -14.783401 10.539993 -1.259500
						CHANNELS 3 Xrotation Yrotation Zrotation
						End Site
						{
							OFFSET 0.000000 18.199631 0.000000
						}
					}
				}
			}
		}
		JOINT newVegas:Belly
		{
			OFFSET 0.000000 -6.540398 9.014299
			CHANNELS 3 Xrotation Yrotation Zrotation
			End Site
			{
				OFFSET 0.000000 11.566666 0.000000
			}
		}
	}
	JOINT newVegas:ElvisFacialAnim_Joint
	{
		OFFSET 1.000000 -95.330101 -8.825800
		CHANNELS 3 Xrotation Yrotation Zrotation
		End Site
		{
			OFFSET 0.000000 35.315800 0.000000
		}
	}
}
MOTION
Frames: 4
Frame Time: 0.033333
-2.966955 46.149750 3.483482 -40.228199 -31.865168 -19.762061 0.000001 0.000001 -0.000001 -88.302338 -14.411755 21.841767 123.376863 -12.010019 -0.896503 1.324806 -4.875332 -5.064385 -0.000000 -0.000002 -0.000000 0.000000 -0.000000 0.000000 5.397534 44.018377 -32.184114 143.210940 44.548481 7.476544 -75.106427 -16.882006 13.216557 0.000001 0.000001 0.000000 -0.000001 -0.000001 -0.000002 58.789050 2.404640 2.145406 10.733643 0.744724 -4.518907 17.519642 -0.082371 -4.554022 -1.362517 2.878389 -0.259023 -1.362494 2.878391 -0.259026 0.000002 0.000002 0.000002 -1.362469 2.878381 -0.259025 -1.362570 2.878406 -0.259017 -0.000003 0.000001 -0.000001 0.000002 0.000002 -0.000000 -37.560197 -4.823312 1.306763 -73.286099 -19.461412 -69.166840 0.000022 -49.482634 0.000014 -122.224295 3.138791 22.349912 4.709224 9.560377 3.111980 19.473189 -1.474893 7.636918 -0.000001 -0.000004 -0.000001 -0.212820 3.933714 -36.747029 2.942023 5.078844 -60.143306 -0.000003 -0.000001 -0.000001 0.400626 5.502991 -52.453329 3.387137 5.308610 -65.057449 -0.000005 -0.000001 0.000000 -0.075290 5.736276 -61.061440 4.055034 5.569496 -72.094894 -0.000003 -0.000002 -0.000001 -6.573069 4.541905 -72.421186 3.299620 5.267190 -64.107841 -0.000001 -0.000005 0.000001 -0.000001 -0.000001 -0.000000 -0.000001 -0.000001 -0.000000 -0.000001 -0.000001 0.000000 -0.000000 0.000002 -0.000001 -0.000000 0.000002 -0.000003 -0.000000 0.000002 -0.000001 -0.000002 0.000001 -0.000000 -42.137483 -9.770979 -7.577381 -51.818009 45.280592 94.919767 0.000075 103.652547 -0.000071 -37.420045 -24.461421 -24.583514 8.378021 -4.906670 11.021536 21.621309 -18.185116 -18.384801 0.000003 -0.000000 -0.000001 -0.920041 1.683583 12.434979 0.748148 -2.533496 32.898781 -0.000001 0.000001 -0.000001 3.409813 -7.183705 51.650164 6.296805 -4.359565 110.634694 0.000001 -0.000000 0.000002 -3.351253 -2.598983 57.010694 5.440875 -4.590879 99.698174 0.000000 0.000001 -0.000001 -4.007851 -3.298561 64.594219 4.058839 -4.618637 82.610510 -0.000000 0.000003 -0.000001 0.000001 0.000003 0.000003 0.000001 -0.000000 0.000001 0.000001 0.000003 0.000001 0.000002 0.000002 -0.000000 0.000002 0.000003 -0.000000 0.000002 0.000002 -0.000000 0.000002 0.000003 -0.000001 0.000000 0.000000 0.000002 0.000000 0.000000 0.000002 0.000000 0.000000 0.000002 0.000000 0.000000 0.000002 0.000000 0.000000 0.000002 0.000000 0.000000 0.000002 0.000000 0.000000 0.000002 -0.000000 0.000002 -0.000000 0.000001 0.000001 -0.000001 
-2.967012 46.156029 3.487774 -40.219514 -31.867795 -19.765145 -0.000003 -0.000002 -0.000002 -88.301457 -14.414375 21.842381 123.377573 -12.011676 -0.896829 1.316518 -4.874915 -5.067020 -0.000000 0.000002 0.000000 -0.000000 -0.000002 0.000000 5.374722 44.035350 -32.167831 143.193304 44.519590 7.490568 -75.070432 -16.885196 13.256899 -0.000002 0.000002 -0.000002 -0.000000 -0.000001 -0.000003 58.789057 2.404556 2.145438 10.742884 0.744712 -4.518900 17.537663 -0.082364 -4.554024 -1.347277 2.884885 -0.260839 -1.347295 2.884893 -0.260849 0.000002 0.000001 -0.000002 -1.347294 2.884891 -0.260846 -1.347255 2.884880 -0.260840 -0.000002 0.000000 -0.000001 0.000002 0.000001 -0.000001 -37.560412 -4.850632 1.306705 -73.251334 -19.437098 -69.141670 0.000016 -49.551735 0.000024 -122.216714 3.116159 22.358728 4.709226 9.560375 3.111987 19.473187 -1.474896 7.636922 0.000002 0.000001 -0.000003 -0.228032 3.913386 -36.748590 2.942791 5.079278 -60.152001 0.000001 -0.000001 -0.000000 0.400375 5.502540 -52.448790 3.391095 5.310434 -65.100063 -0.000002 -0.000000 -0.000001 -0.075587 5.735725 -61.056263 4.053983 5.569148 -72.083986 -0.000000 -0.000001 0.000005 -6.573077 4.541901 -72.421199 3.296666 5.265774 -64.075849 0.000000 -0.000003 -0.000000 0.000002 -0.000001 -0.000003 0.000002 -0.000001 -0.000003 0.000002 -0.000000 -0.000003 0.000001 0.000002 0.000002 0.000001 0.000002 0.000002 0.000001 0.000002 0.000002 -0.000001 0.000001 0.000001 -42.136202 -9.784722 -7.590308 -51.806257 45.281791 94.911120 -0.000580 103.688637 0.000579 -37.391153 -24.443934 -24.568003 8.348926 -4.918334 10.998181 21.653009 -18.140183 -18.372026 -0.000000 -0.000001 0.000001 -0.907090 1.669666 12.323943 0.748147 -2.533496 32.898784 0.000000 -0.000000 -0.000000 3.405551 -7.182570 51.600167 6.296190 -4.359792 110.626641 0.000000 -0.000000 -0.000000 -3.351249 -2.598410 57.006644 5.438352 -4.591325 99.666851 0.000001 0.000001 0.000001 -4.007827 -3.298543 64.594219 4.063169 -4.619202 82.664448 -0.000001 -0.000000 -0.000002 -0.000000 0.000003 -0.000005 0.000000 0.000001 -0.000004 -0.000000 0.000003 -0.000003 0.000001 -0.000002 -0.000000 0.000001 -0.000001 -0.000000 0.000001 -0.000002 -0.000000 0.000001 -0.000001 -0.000001 -0.000000 -0.000001 0.000001 -0.000000 -0.000001 0.000001 -0.000000 -0.000001 0.000001 -0.000000 -0.000001 0.000001 -0.000000 -0.000001 0.000001 -0.000000 -0.000001 0.000001 -0.000000 -0.000001 0.000001 -0.000000 -0.000002 0.000001 -0.000003 -0.000002 -0.000002 
-2.966591 46.162895 3.493217 -40.207353 -31.867388 -19.765398 -0.000001 -0.000003 -0.000000 -88.300303 -14.418632 21.840165 123.378024 -12.001173 -0.897012 1.306827 -4.885161 -5.067622 -0.000000 -0.000001 0.000000 -0.000000 0.000000 -0.000000 5.309786 44.005389 -32.081655 143.203631 44.472731 7.456739 -75.069824 -16.928258 13.255993 -0.000001 0.000001 0.000000 0.000002 0.000000 -0.000002 58.789050 2.404530 2.145639 10.754737 0.744721 -4.518910 17.557577 -0.082368 -4.554015 -1.333288 2.891529 -0.263206 -1.333265 2.891526 -0.263215 -0.000001 -0.000000 0.000000 -1.333349 2.891538 -0.263213 -1.333225 2.891526 -0.263208 -0.000001 -0.000001 0.000002 -0.000001 -0.000000 -0.000002 -37.566751 -4.876460 1.307166 -73.212238 -19.400529 -69.116214 0.000031 -49.635695 0.000029 -122.202671 3.094516 22.374573 4.709225 9.560378 3.111981 19.473190 -1.474895 7.636920 0.000000 -0.000001 -0.000001 -0.231448 3.908818 -36.748959 2.942737 5.079277 -60.151495 0.000000 -0.000001 0.000000 0.397855 5.499920 -52.435741 3.392670 5.311165 -65.117255 -0.000000 -0.000003 0.000001 -0.080771 5.731648 -61.039229 4.053182 5.568909 -72.075735 -0.000003 -0.000004 0.000001 -6.573049 4.541925 -72.421192 3.292887 5.263921 -64.034588 -0.000001 -0.000002 0.000000 0.000001 0.000000 -0.000003 0.000001 0.000000 -0.000003 -0.000000 0.000000 -0.000003 -0.000002 0.000001 -0.000001 -0.000002 -0.000000 -0.000003 -0.000002 0.000001 -0.000001 -0.000003 0.000000 -0.000001 -42.134658 -9.798352 -7.607685 -51.800394 45.288204 94.906407 -0.001218 103.740424 0.001194 -37.362139 -24.446295 -24.573960 8.344009 -4.920206 10.996068 21.669299 -18.121293 -18.366064 -0.000001 -0.000000 -0.000001 -0.897862 1.669923 12.220150 0.748148 -2.533496 32.898781 -0.000000 -0.000000 -0.000002 3.400886 -7.181351 51.545856 6.294469 -4.360439 110.604122 0.000000 -0.000000 0.000002 -3.351344 -2.596523 56.993192 5.437173 -4.591523 99.651893 -0.000000 0.000001 0.000000 -4.007923 -3.297774 64.589206 4.063335 -4.619214 82.666592 -0.000001 0.000003 0.000002 -0.000001 -0.000003 -0.000000 -0.000000 -0.000005 0.000000 -0.000001 -0.000003 -0.000002 0.000001 0.000000 0.000001 0.000001 0.000001 0.000003 0.000001 0.000000 0.000001 0.000001 0.000001 0.000003 -0.000001 -0.000003 0.000002 -0.000001 -0.000003 0.000002 -0.000001 -0.000003 0.000002 -0.000001 -0.000003 0.000002 -0.000001 -0.000003 0.000002 -0.000001 -0.000003 0.000002 -0.000001 -0.000003 0.000002 -0.000000 -0.000001 0.000000 -0.000001 -0.000003 -0.000000 
-2.966852 46.169777 3.498592 -40.194536 -31.866975 -19.765736 0.000001 0.000002 -0.000001 -88.300344 -14.422467 21.838994 123.380947 -11.983871 -0.896944 1.294237 -4.902872 -5.065381 -0.000000 0.000000 0.000000 -0.000000 -0.000001 -0.000000 5.242767 43.974008 -31.998220 143.214327 44.423721 7.422203 -75.063533 -16.966108 13.257051 -0.000002 0.000003 -0.000002 0.000000 0.000000 0.000002 58.789036 2.404448 2.145888 10.767821 0.744715 -4.518810 17.580297 -0.082374 -4.554032 -1.320391 2.898604 -0.265943 -1.320389 2.898600 -0.265945 -0.000001 -0.000000 0.000002 -1.320367 2.898591 -0.265944 -1.320326 2.898603 -0.265942 0.000001 0.000000 -0.000000 -0.000001 -0.000000 -0.000000 -37.573718 -4.899384 1.313785 -73.168340 -19.365186 -69.085806 0.000002 -49.729026 -0.000007 -122.197999 3.068061 22.389136 4.709224 9.560380 3.111983 19.473187 -1.474896 7.636920 -0.000000 -0.000000 -0.000003 -0.226930 3.914829 -36.747900 2.942131 5.078896 -60.144419 -0.000002 -0.000002 -0.000001 0.392659 5.494912 -52.417098 3.392722 5.311189 -65.117910 -0.000001 -0.000002 -0.000001 -0.085185 5.727896 -61.021142 4.052612 5.568729 -72.069820 0.000000 -0.000002 -0.000002 -6.573066 4.541907 -72.421186 3.290005 5.262525 -64.003046 -0.000000 -0.000003 -0.000000 -0.000001 -0.000001 -0.000004 -0.000001 -0.000001 -0.000004 -0.000001 0.000000 -0.000004 0.000000 0.000003 0.000001 0.000000 0.000002 -0.000001 0.000000 0.000003 0.000001 -0.000001 0.000002 0.000001 -42.133364 -9.811556 -7.624827 -51.805390 45.297046 94.909160 -0.000260 103.803678 0.000242 -37.338223 -24.479965 -24.607983 8.336966 -4.925015 10.995016 21.677499 -18.116368 -18.363869 0.000002 0.000000 -0.000000 -0.890387 1.671279 12.133771 0.748148 -2.533496 32.898784 0.000001 -0.000001 0.000001 3.397344 -7.180391 51.504233 6.292426 -4.361217 110.577327 0.000000 -0.000000 0.000001 -3.351420 -2.593892 56.974761 5.436802 -4.591569 99.647515 -0.000000 0.000001 0.000001 -4.008137 -3.295805 64.576351 4.062321 -4.619095 82.654107 -0.000001 -0.000002 -0.000003 -0.000002 0.000002 -0.000000 -0.000002 -0.000000 -0.000003 -0.000002 0.000002 -0.000000 -0.000002 -0.000001 0.000000 -0.000002 0.000000 0.000000 -0.000002 -0.000001 0.000000 -0.000002 -0.000000 -0.000000 0.000001 0.000001 -0.000003 0.000001 0.000001 -0.000003 0.000001 0.000001 -0.000003 0.000001 0.000001 -0.000003 0.000001 0.000001 -0.000003 0.000001 0.000001 -0.000003 0.000001 0.000001 -0.000003 -0.000000 -0.000003 0.000002 0.000001 0.000002 -0.000001 
